<?xml version="1.0" encoding="utf-8"?>
<!-- Generator: Adobe Illustrator 21.1.0, SVG Export Plug-In . SVG Version: 6.00 Build 0)  -->
<svg version="1.1" id="Capa_1" xmlns="http://www.w3.org/2000/svg" xmlns:xlink="http://www.w3.org/1999/xlink" x="0px" y="0px"
	 viewBox="0 0 1056 1056" style="enable-background:new 0 0 1056 1056;" xml:space="preserve">
<style type="text/css">
	.st0{fill:#D0B83E;}
	.st1{opacity:0.59;}
	.st2{fill:#AF9838;}
	.st3{fill:#C4AE43;stroke:#AF983A;stroke-width:4;stroke-linecap:round;stroke-linejoin:round;stroke-miterlimit:10;}
	.st4{fill:none;stroke:#AD9532;stroke-width:4;stroke-linecap:round;stroke-linejoin:round;stroke-miterlimit:10;}
	.st5{fill:#C4AE43;}
	.st6{fill:#C1AA49;}
	.st7{fill:#C1AA48;stroke:#AD9532;stroke-width:4;stroke-linecap:round;stroke-linejoin:round;stroke-miterlimit:10;}
	.st8{fill:#DBCC8A;stroke:#AD9532;stroke-width:4;stroke-linecap:round;stroke-linejoin:round;stroke-miterlimit:10;}
	.st9{fill:#C5B55A;stroke:#A4933D;stroke-width:4;stroke-linecap:round;stroke-linejoin:round;stroke-miterlimit:10;}
	.st10{fill:none;stroke:#A4933D;stroke-width:4;stroke-linecap:round;stroke-linejoin:round;stroke-miterlimit:10;}
	.st11{fill:#B1A14D;stroke:#A4933D;stroke-width:4;stroke-linecap:round;stroke-linejoin:round;stroke-miterlimit:10;}
	.st12{fill:#C4AE43;stroke:#AD9532;stroke-width:4;stroke-linecap:round;stroke-linejoin:round;stroke-miterlimit:10;}
	.st13{fill:#82742D;stroke:#A4933D;stroke-width:4;stroke-linecap:round;stroke-linejoin:round;stroke-miterlimit:10;}
	.st14{fill:#82742D;}
	.st15{fill:#C4AE43;stroke:#A89236;stroke-width:4;stroke-linecap:round;stroke-linejoin:round;stroke-miterlimit:10;}
	.st16{fill:none;stroke:#A89236;stroke-width:4;stroke-linecap:round;stroke-linejoin:round;stroke-miterlimit:10;}
	.st17{fill:none;stroke:#C4AE43;stroke-width:4;stroke-linecap:round;stroke-linejoin:round;stroke-miterlimit:10;}
	.st18{fill:none;stroke:#B59D39;stroke-width:4;stroke-linecap:round;stroke-linejoin:round;stroke-miterlimit:10;}
	.st19{fill:none;stroke:#B29B3B;stroke-width:4;stroke-linecap:round;stroke-linejoin:round;stroke-miterlimit:10;}
	.st20{fill:#B7A146;}
	.st21{fill:none;stroke:#AF983A;stroke-width:4;stroke-linecap:round;stroke-linejoin:round;stroke-miterlimit:10;}
	.st22{fill:#BCA64A;stroke:#AF983A;stroke-width:4;stroke-linecap:round;stroke-linejoin:round;stroke-miterlimit:10;}
</style>
<title>Group 6</title>
<desc>Created with Sketch.</desc>
<rect class="st0" width="1057.3" height="1057.3"/>
<g class="st1">
	<path class="st2" d="M397.8,334.1l-46.2,12.4l-12.4,46.2l33.8,33.8l46.2-12.4l12.4-46.2L397.8,334.1z M385.4,398.5
		c-10,0-18.2-8.1-18.2-18.2c0-10,8.1-18.2,18.2-18.2c10,0,18.2,8.1,18.2,18.2S395.5,398.5,385.4,398.5z"/>
	<g>
		<path class="st3" d="M768.5,577.9c0,0-15.6-10.8-15.6-68V507c0-57.2,15.6-68,15.6-68h-69.1c0,0,15.6,10.8,15.6,68v2.9
			c0,57.2-15.6,68-15.6,68H768.5z"/>
		<path class="st3" d="M756.7,358.4v40.4c0,5.1-4.3,9.2-9.6,9.2h-26.3c-5.3,0-9.6-4.1-9.6-9.2v-40.6c-15.9,7.5-26.9,23-26.9,41.1
			v6.6c0,25.3,21.5,45.9,47.9,45.9h3c26.5,0,47.9-20.5,47.9-45.9v-6.6C783.1,381.3,772.3,365.9,756.7,358.4z"/>
		<path class="st3" d="M756.7,659v-40.4c0-5.1-4.3-9.2-9.6-9.2h-26.3c-5.3,0-9.6,4.1-9.6,9.2v40.6c-15.9-7.5-26.9-23-26.9-41.1v-6.6
			c0-25.3,21.5-45.9,47.9-45.9h3c26.5,0,47.9,20.5,47.9,45.9v6.6C783.1,636.1,772.3,651.4,756.7,659z"/>
	</g>
	<g>
		<line class="st4" x1="109.6" y1="122" x2="149.4" y2="45.3"/>
		<polyline class="st4" points="88.7,45.3 51.4,83.7 88.7,122 		"/>
		<polyline class="st4" points="173.7,45.3 211,83.7 173.7,122 		"/>
	</g>
	<g>
		<path class="st5" d="M408.3,67.3c-2-2.3-4.3-4.1-6.5-6.1l11.9-19.9l-23.1-13.8l-12.1,20.2c-5-1.7-10.1-3-15.4-3.5L361,20.7
			L334.2,23l2.1,23.6c-5,1.5-9.9,3.5-14.5,6.1l-15.5-17.8L286,52.6l15.5,17.8c-3.3,4.2-5.9,8.8-8,13.5l-23.1-5.3l-6,26.3l22.9,5.3
			c-0.2,5.3,0.3,10.5,1.3,15.8l-21.6,9.2l10.6,24.8l21.3-9.1c1.7,2.5,3.2,5,5.2,7.3c1.6,1.9,3.5,3.3,5.3,5l-11.8,19.7l23.1,13.9
			l11.6-19.4c5.2,1.9,10.5,3.3,16,3.9l2,22.3l26.9-2.4l-1.9-22c5.3-1.5,10.5-3.5,15.5-6.3l14.4,16.5l20.3-17.7L410.9,155
			c3.5-4.5,6.2-9.4,8.4-14.5l21.6,5l6-26.3l-21.8-5c0.1-5.5-0.5-10.9-1.7-16.4l20.8-8.9l-10.6-24.8l-21.2,9
			C411.2,71.2,409.9,69.1,408.3,67.3z M381.7,142c-16.5,14.4-41.7,12.7-56.1-3.9s-12.7-41.7,3.9-56.1s41.7-12.7,56.1,3.9
			S398.3,127.6,381.7,142z"/>
		<ellipse class="st5" cx="355.6" cy="112" rx="10" ry="10"/>
	</g>
	<path class="st6" d="M233.9,633.9v-20.8h-24.1c-0.5-3.5-1.2-7-2.1-10.4l22.1-9.2l-8-19.2l-22.2,9.2c-1.8-3.1-3.8-6-6-8.8l16.9-16.9
		l-14.7-14.7l-17,17c-2.8-2.1-5.8-4.1-8.8-5.9l9.1-22.1l-19.2-7.9l-9.2,22.2c-3.4-0.9-6.9-1.6-10.4-2v-23.9h-20.8v24.1
		c-3.5,0.5-7,1.2-10.4,2.1L100,525l-19.2,7.9l9.2,22.2c-3,1.8-6,3.8-8.8,6l-16.9-16.9l-14.7,14.7l17,17c-2.1,2.8-4.1,5.8-5.9,8.8
		l-22.1-9.1l-7.9,19.2l22.2,9.2c-0.9,3.4-1.6,6.9-2,10.4H27.2v20.8h24.1c0.5,3.5,1.2,7,2.1,10.4l-22.1,9.2l8,19.2l22.2-9.2
		c1.8,3.1,3.8,6,6,8.8l-16.9,16.9L65.3,705l17-17c2.8,2.1,5.8,4.1,8.8,5.9l-9.1,22l19.2,7.9l9.2-22.2c3.4,0.9,6.9,1.6,10.4,2v23.9
		h20.8v-24.1c3.5-0.5,7-1.2,10.4-2.1l9.1,22.1l19.2-7.9l-9.2-22.2c3.1-1.8,6-3.8,8.8-6l16.9,16.9l14.7-14.7l-17-17
		c2.1-2.8,4.1-5.8,5.9-8.8l22,9.1l7.9-19.2l-22.2-9.2c0.9-3.4,1.6-6.9,2-10.4L233.9,633.9z M182.4,594.2c3,5.2,1.2,11.9-4,14.9
		s-11.9,1.2-14.9-4s-1.2-11.9,4-14.9C172.8,587.3,179.4,589,182.4,594.2z M130.6,564.3c6,0,10.9,4.9,10.9,10.9s-4.9,10.9-10.9,10.9
		s-10.9-4.9-10.9-10.9C119.7,569.2,124.6,564.3,130.6,564.3z M93.6,590.3c5.2,3,7,9.7,4,14.9s-9.7,7-14.9,4c-5.2-3-7-9.7-4-14.9
		C81.7,589,88.4,587.3,93.6,590.3z M78.7,654.1c-3-5.2-1.2-11.9,4-14.9s11.9-1.2,14.9,4s1.2,11.9-4,14.9S81.7,659.3,78.7,654.1z
		 M130.6,684.1c-6,0-10.9-4.9-10.9-10.9s4.9-10.9,10.9-10.9s10.9,4.9,10.9,10.9C141.4,679.2,136.6,684.1,130.6,684.1z M130.6,645
		c-11.5,0-20.8-9.3-20.8-20.8s9.3-20.8,20.8-20.8s20.8,9.3,20.8,20.8C151.3,635.7,142,645,130.6,645z M167.6,658.1
		c-5.2-3-7-9.7-4-14.9s9.7-7,14.9-4s7,9.7,4,14.9C179.4,659.3,172.8,661.1,167.6,658.1z"/>
	<path class="st3" d="M254.3,265.5c-2.7-4-5.9-7.4-9-10.9l22.8-29L234.4,199l-23.1,29.3c-7.5-3.7-15.4-6.7-23.6-8.6l1.4-37.5
		l-42.8-1.6l-1.5,37.6c-8.2,1.4-16.2,3.5-24.1,6.7l-20.9-31.2l-35.6,23.8l20.9,31.2c-6,6-11,12.6-15.4,19.7l-35.3-13l-14.8,40.2
		l35.1,12.9c-1.4,8.3-1.6,16.7-1.1,25.1L17.7,344l11.7,41.2l35.4-10c2.1,4.2,4,8.5,6.6,12.5c2.2,3.3,4.9,5.9,7.3,8.9l-22.6,28.7
		l33.7,26.5l22.2-28.2c7.8,4.1,16,7.3,24.4,9.4l-1.4,35.5l42.9,1.6l1.4-35.1c8.7-1.3,17.3-3.4,25.7-6.9l19.4,28.9l35.6-23.8
		l-19.3-28.9c6.4-6.4,11.6-13.6,16.2-21.1l33,12.2l14.8-40.2l-33.4-12.3c1.3-8.7,1.5-17.4,0.7-26.1l34.6-9.8l-11.7-41.3l-35.2,10
		C257.9,272.2,256.5,268.7,254.3,265.5z M183.1,356.9c-16.7,11.2-39.3,6.7-50.4-10c-11.2-16.7-6.7-39.3,10-50.4
		c16.7-11.2,39.3-6.7,50.4,10C204.3,323.1,199.8,345.7,183.1,356.9z"/>
	<path class="st3" d="M621.9,611.8c-1.6-2.4-3.6-4.5-5.5-6.6l13.8-17.5l-20.4-16l-14,17.8c-4.6-2.3-9.3-4.1-14.3-5.2l0.9-22.7
		l-25.9-1l-0.9,22.8c-4.9,0.8-9.8,2.1-14.6,4.1l-12.7-18.9L506.7,583l12.7,18.9c-3.7,3.6-6.7,7.7-9.3,11.9l-21.4-7.9l-9,24.4
		L501,638c-0.8,5-1,10.1-0.7,15.2l-21.7,6.1l7.1,25l21.4-6.1c1.3,2.6,2.4,5.2,4,7.6c1.3,2,3,3.6,4.4,5.4l-13.7,17.4l20.4,16
		l13.4-17.1c4.7,2.5,9.7,4.4,14.8,5.7l-0.8,21.5l26,1l0.8-21.2c5.3-0.8,10.5-2.1,15.5-4.2l11.7,17.5l21.6-14.4l-11.7-17.5
		c3.9-3.9,7.1-8.2,9.8-12.8l20,7.4l9-24.4l-20.2-7.4c0.8-5.2,0.9-10.5,0.4-15.8l21-5.9l-7.1-25l-21.3,6
		C624.1,615.9,623.2,613.8,621.9,611.8z M578.8,667.1c-10.1,6.8-23.8,4-30.5-6.1c-6.8-10.1-4-23.8,6.1-30.5
		c10.1-6.8,23.8-4.1,30.5,6C591.6,646.7,588.9,660.4,578.8,667.1z"/>
	<g>
		<path class="st5" d="M558.9,225.2c-2-2.3-4.3-4.1-6.5-6.1l11.9-19.9l-23.2-13.8L529,205.5c-5-1.7-10.1-3-15.4-3.5l-2.1-23.5
			l-26.9,2.4l2.1,23.6c-5,1.5-9.9,3.5-14.5,6.1l-15.5-17.8l-20.4,17.7l15.5,17.8c-3.3,4.2-5.9,8.8-8,13.5l-23.1-5.3l-6,26.3
			l22.9,5.3c-0.2,5.3,0.3,10.5,1.3,15.8l-21.6,9.2l10.6,24.8l21.3-9.1c1.6,2.5,3.2,5,5.2,7.3c1.6,1.9,3.5,3.3,5.3,5l-11.8,19.7
			l23.2,13.9l11.6-19.4c5.2,1.9,10.6,3.3,16,3.9l2,22.3l26.9-2.4l-1.9-22c5.3-1.5,10.5-3.5,15.5-6.3l14.4,16.5l20.3-17.7L561.4,313
			c3.5-4.5,6.2-9.4,8.4-14.5l21.6,5l6-26.3l-21.8-5c0.1-5.5-0.5-11-1.7-16.4l20.8-8.9l-10.6-24.8l-21.2,9
			C561.7,229.1,560.5,227,558.9,225.2z M532.2,300c-16.6,14.4-41.7,12.7-56.1-3.9s-12.7-41.7,3.9-56.1c16.6-14.4,41.7-12.7,56.1,3.9
			C550.5,260.4,548.8,285.5,532.2,300z"/>
	</g>
	<g>
		<polygon class="st7" points="866.2,801.7 855.6,773.6 845.1,801.7 845.1,921.5 866.2,921.5 		"/>
		<polygon class="st4" points="866.2,801.7 855.6,773.6 845.1,801.7 845.1,921.5 866.2,921.5 		"/>
		<line class="st4" x1="855.6" y1="773.6" x2="855.6" y2="765.6"/>
		<rect x="845.1" y="921.5" class="st4" width="21.1" height="18.7"/>
		<polygon class="st8" points="845.1,801.7 866.2,801.7 855.6,773.6 		"/>
	</g>
	<polygon class="st9" points="469,867.4 469,805.8 487.2,805.8 487.2,885.5 486.1,885.5 468.8,885.5 331.1,885.5 331.1,867.4 	"/>
	<rect x="486.7" y="770.8" class="st9" width="19.8" height="169.4"/>
	<polygon class="st9" points="522.1,942.1 595.4,783 582.1,777.4 506.5,942.1 	"/>
	<g>
		<line class="st10" x1="666.4" y1="891.2" x2="633.2" y2="858"/>
		<line class="st10" x1="649.8" y1="874.6" x2="609.5" y2="914.9"/>
	</g>
	<path class="st9" d="M575.6,941.3c-2.6,2.6-2.6,6.9,0,9.5l7.7,7.7c2.6,2.6,6.9,2.6,9.5,0l45.7-54.4c2.6-2.6,2.6-6.9,0-9.5l-7.7-7.7
		c-2.6-2.6-6.9-2.6-9.5,0L575.6,941.3z"/>
	<path class="st11" d="M541.1,900.9l60.6-17.7c3.7,0,6.7,3,6.7,6.7v69.9c0,3.7-3,6.7-6.7,6.7H537c-3.7,0-22.7-2.4-22.7-6.1
		L541.1,900.9z"/>
	<path class="st12" d="M462.9,956.9c0-20.6,35.1-25.5,55.9-25.5c24.8,0,46.2,14.3,56.5,35.1l-0.2,0.1h61.8l11.5-35.2h92.8h8.4v-85.1
		c0-0.3,0.3-0.6,0.6-0.6l49.2,27.2c0.4,0,0.6,0.3,0.6,0.6v127.7c0,0.3-0.3,0.6-0.6,0.6h-18l0,0h-31.8h-59.4H589.5H478
		c0,0-14.9,0.1-14.9-9.9C463.1,979.9,462.9,956.9,462.9,956.9z"/>
	<rect x="748.9" y="780" class="st9" width="14.4" height="151.4"/>
	<path class="st13" d="M748.9,931.4v-80.5c0,0-15.8-2-24.3,11.6s-4.1,44.6-4.1,44.6c-14.3-1.5-29.3-4.3-43.6-1.4
		c-7.2,1.5-12.9,3.9-16.3,10.8c-2.1,4.3-4.8,14.8,3.4,14.8h1.7h83.2V931.4z"/>
	<circle class="st9" cx="518.8" cy="994.5" r="46"/>
	<circle class="st14" cx="518.8" cy="994.5" r="24.3"/>
	<path class="st11" d="M799.5,1000.8c0.2-2.1,0.3-4.2,0.3-6.3c0-34.8-28.2-63.1-63.1-63.1c-34.8,0-63.1,28.2-63.1,63.1
		c0,2.4,0.1,4.9,0.4,7.2L799.5,1000.8z"/>
	<circle class="st9" cx="736.7" cy="994.5" r="46"/>
	<ellipse class="st14" cx="736.7" cy="994.5" rx="24.3" ry="24.3"/>
	<path class="st3" d="M600,767.9h158.9c2.4,0,4.4,1.9,4.4,4.4V787c0,2.4-2,4.4-4.4,4.4H571.6C562,791.4,577.9,767.9,600,767.9z"/>
	<g>
		<path class="st9" d="M674.1,986.7L674.1,986.7H564.8l-0.6,0.6c0.4,2.3,0.6,4.7,0.6,7.2s-0.2,4.9-0.6,7.2h25.3H674
			c-0.3-2.4-0.4-4.8-0.4-7.2C673.6,991.8,673.8,989.3,674.1,986.7z"/>
		<polygon class="st9" points="674,1001.7 682.2,1001.7 682.2,1001.7 		"/>
	</g>
	<path class="st10" d="M701.4,942.1c-16.8,11.3-27.9,30.6-27.9,52.4"/>
	<g>
		<g>
			<path class="st15" d="M562.1,508.4c-1-3.5,1-7.3,4.5-8.3l0,0c3.5-1,7.3,1,8.3,4.5l0,0c1,3.5-1,7.3-4.5,8.3l0,0l0,0l0,0
				c-0.6,0.2-1.3,0.3-1.9,0.3l0,0C565.6,513.2,562.9,511.3,562.1,508.4z M536.5,511.7L536.5,511.7L536.5,511.7
				c-3.5-1.3-5.2-5.2-3.9-8.6l0,0c1.3-3.5,5.2-5.2,8.6-3.9l0,0c3.5,1.3,5.2,5.1,3.9,8.6l0,0c-1,2.7-3.6,4.4-6.3,4.4l0,0
				C538.1,512.1,537.3,512,536.5,511.7z M588.8,495c-3-2.2-3.6-6.4-1.3-9.4l0,0c2.2-3,6.4-3.6,9.4-1.3l0,0c3,2.2,3.6,6.4,1.3,9.4
				l0,0c-1.3,1.8-3.3,2.7-5.4,2.7l0,0C591.4,496.3,590,495.9,588.8,495z M510.2,490.5c-2-3.1-1.1-7.3,2-9.3l0,0c3.1-2,7.3-1.1,9.3,2
				l0,0c2,3.1,1.1,7.3-2,9.3l0,0c-1.1,0.7-2.4,1.1-3.6,1.1l0,0C513.6,493.5,511.5,492.5,510.2,490.5z M595.5,461.5
				c0-3.7,3-6.7,6.7-6.7l0,0c3.7,0,6.7,3,6.7,6.7l0,0c0,3.7-3,6.7-6.7,6.7l0,0C598.5,468.2,595.5,465.2,595.5,461.5z M508,464.8
				c-3.7-0.3-6.5-3.5-6.2-7.2l0,0c0.3-3.7,3.5-6.5,7.2-6.2l0,0c3.7,0.3,6.5,3.5,6.2,7.2l0,0c-0.2,3.5-3.2,6.2-6.7,6.2l0,0
				C508.4,464.9,508.2,464.9,508,464.8z M590.6,442.3L590.6,442.3c-1.8-3.2-0.6-7.3,2.7-9.1l0,0c3.2-1.8,7.3-0.6,9.1,2.7l0,0
				c1.8,3.2,0.6,7.3-2.7,9.1l0,0c-1,0.6-2.1,0.8-3.2,0.8l0,0C594.1,445.7,591.8,444.5,590.6,442.3z M515.5,435.9
				c-2.8-2.4-3.1-6.7-0.7-9.5l0,0c2.4-2.8,6.7-3.1,9.4-0.7l0,0c2.8,2.4,3.1,6.7,0.7,9.4l0,0c-1.3,1.5-3.2,2.3-5.1,2.3l0,0
				C518.3,437.5,516.7,437,515.5,435.9z M572,424.9c-3.4-1.5-4.8-5.5-3.3-8.9l0,0c1.5-3.4,5.5-4.8,8.9-3.3l0,0
				c3.4,1.5,4.8,5.5,3.3,8.9l0,0c-1.1,2.5-3.6,3.9-6.1,3.9l0,0C573.8,425.6,572.9,425.4,572,424.9z M538.8,417.1
				c-0.8-3.6,1.5-7.2,5.1-8l0,0c3.6-0.8,7.2,1.5,8,5.1l0,0c0.8,3.6-1.5,7.2-5.1,8l0,0c-0.5,0.1-1,0.2-1.4,0.2l0,0
				C542.2,422.4,539.4,420.2,538.8,417.1z"/>
		</g>
	</g>
	<g>
		
			<rect x="687" y="699" transform="matrix(1 -1.693708e-03 1.693708e-03 1 -1.2093 1.3595)" class="st12" width="230.2" height="31.3"/>
		<g>
			<line class="st4" x1="896.2" y1="711.7" x2="896.2" y2="695.6"/>
			<line class="st4" x1="882.3" y1="711.7" x2="882.3" y2="695.6"/>
			<line class="st4" x1="868.3" y1="711.7" x2="868.3" y2="695.6"/>
			<line class="st4" x1="854.4" y1="711.7" x2="854.4" y2="695.6"/>
			<line class="st4" x1="840.4" y1="711.7" x2="840.4" y2="695.6"/>
			<line class="st4" x1="826.5" y1="711.7" x2="826.5" y2="695.6"/>
			<line class="st4" x1="812.5" y1="711.7" x2="812.5" y2="695.6"/>
			<line class="st4" x1="797.4" y1="711.7" x2="797.4" y2="695.6"/>
			<line class="st4" x1="783.5" y1="711.7" x2="783.5" y2="695.6"/>
			<line class="st4" x1="770.7" y1="711.7" x2="770.7" y2="695.6"/>
			<line class="st4" x1="756.8" y1="711.7" x2="756.8" y2="695.6"/>
			<line class="st4" x1="742.8" y1="711.7" x2="742.8" y2="695.6"/>
			<line class="st4" x1="728.9" y1="711.7" x2="728.9" y2="695.6"/>
			<line class="st4" x1="714.9" y1="711.7" x2="714.9" y2="695.5"/>
			<line class="st4" x1="701" y1="711.7" x2="701" y2="695.5"/>
		</g>
	</g>
	<g>
		<path id="ipad_2_" class="st15" d="M184.3,776.4H46.1c-9.5,0-17.2,7.7-17.2,17.2v216.3c0,9.5,7.7,17.2,17.2,17.2h138.2
			c9.5,0,17.2-7.7,17.2-17.2V793.6C201.5,784.1,193.8,776.4,184.3,776.4z M185,995.3H45.2V799.5H185V995.3z"/>
		<g>
			<line class="st4" x1="72" y1="943.2" x2="158.4" y2="943.2"/>
			<line class="st4" x1="72" y1="954.9" x2="158.4" y2="954.9"/>
			<line class="st4" x1="72" y1="966.7" x2="158.4" y2="966.7"/>
		</g>
		<g>
			<circle class="st12" cx="116.2" cy="864.8" r="3.6"/>
			<g>
				<polyline class="st12" points="157.8,898.5 157.8,906.4 149.9,906.4 				"/>
				<line class="st4" x1="136.4" y1="906.4" x2="89.3" y2="906.4"/>
				<polyline class="st12" points="82.6,906.4 74.7,906.4 74.7,898.5 				"/>
				<line class="st4" x1="74.7" y1="885" x2="74.7" y2="837.9"/>
				<polyline class="st12" points="74.7,831.2 74.7,823.3 82.6,823.3 				"/>
				<line class="st4" x1="96" y1="823.3" x2="143.2" y2="823.3"/>
				<polyline class="st12" points="149.9,823.3 157.8,823.3 157.8,831.2 				"/>
				<line class="st4" x1="157.8" y1="844.6" x2="157.8" y2="891.8"/>
			</g>
		</g>
	</g>
	<g>
		<rect x="486.7" y="70.7" class="st15" width="63.4" height="63.4"/>
		<g>
			<line class="st16" x1="486.7" y1="70.7" x2="550.2" y2="134.2"/>
			<line class="st16" x1="486.7" y1="134.2" x2="550.9" y2="70"/>
		</g>
	</g>
	<g>
		<g>
			<rect x="816.1" y="87" class="st17" width="78.7" height="31.4"/>
			<g>
				<line class="st17" x1="894.8" y1="118.4" x2="863.4" y2="87"/>
				<line class="st17" x1="871.1" y1="118.4" x2="839.7" y2="87"/>
				<line class="st17" x1="847.5" y1="118.4" x2="816.1" y2="87"/>
			</g>
			<rect x="816.1" y="87" class="st17" width="78.7" height="31.4"/>
		</g>
		<rect x="828.6" y="118.4" class="st17" width="52.2" height="365.1"/>
		<line class="st17" x1="1016.8" y1="87" x2="738.9" y2="87"/>
		<rect x="959.5" y="87" class="st17" width="29.4" height="31"/>
		<polygon class="st15" points="993.3,118.1 955,118.1 974.1,147.3 		"/>
		<path class="st17" d="M960.1,168.3c0,7.8,6.3,14.1,14.1,14.1s14.1-6.3,14.1-14.1s-6.3-14.1-14.1-14.1v-0.1v-6.8"/>
		<polygon class="st18" points="994.6,87 855.4,24.4 758.7,87 		"/>
		<line class="st17" x1="855.4" y1="24.4" x2="855.4" y2="87"/>
		<rect x="805.8" y="487.7" class="st12" width="96.3" height="15"/>
		<polyline class="st19" points="829.2,118.4 878.8,148.9 829.2,179.5 878.8,210 829.2,240.6 878.8,271.2 829.2,301.7 		"/>
		<polyline class="st19" points="829.2,300.2 878.8,330.8 829.2,361.3 878.8,391.9 829.2,422.4 878.8,453 829.2,483.5 		"/>
		<g id="Page-1">
			<g id="Group-19">
				<path id="Fill-13" class="st20" d="M1034.9,218.9c0-9.2-6.5-20.4-14.4-25l-29.4-17c-7.9-4.6-20.9-4.6-28.8,0l-29.4,17
					c-7.9,4.6-14.4,15.8-14.4,25v67.9c0,4.6,3.7,8.3,8.3,8.3s8.3-3.7,8.3-8.3v-66.6c0-4.6,3.2-10.2,7.2-12.5l27.1-15.7
					c4-2.3,10.4-2.3,14.4,0l27.1,15.7c4,2.3,7.2,7.9,7.2,12.5v38.6c0,4.6,3.7,8.3,8.3,8.3c3.2,0,6-1.8,7.4-4.5
					c0.6-1.1,0.9-2.4,0.9-3.8L1034.9,218.9z"/>
				<path id="Fill-14" class="st20" d="M1035,288.3c0,4.6-3.7,8.3-8.3,8.3c-4.6,0-8.3-3.7-8.3-8.3v-6.1c0-4.6,3.7-8.3,8.3-8.3
					s8.3,3.7,8.3,8.3V288.3z"/>
				<path id="Fill-15" class="st20" d="M976.8,227.5c-4.6,0-8.3,3.7-8.3,8.3v52.4c0,4.6,3.7,8.3,8.3,8.3s8.3-3.7,8.3-8.3v-52.4
					C985.1,231.3,981.4,227.5,976.8,227.5"/>
				<path id="Fill-16" class="st20" d="M1001.7,249.7c4.6,0,8.3-3.7,8.3-8.3V225c0-4.6-3.2-10.2-7.2-12.5L984,201.6
					c-4-2.3-10.4-2.3-14.4,0l-18.8,10.9c-4,2.3-7.2,7.9-7.2,12.5v75.8c0,4.6,3.2,10.2,7.2,12.5l18.8,10.9c4,2.3,10.4,2.3,14.4,0
					l18.8-10.9c4-2.3,7.2-7.9,7.2-12.5v-36c0-4.6-3.7-8.3-8.3-8.3s-8.3,3.7-8.3,8.3v30.5c0,2.3-1.6,5.1-3.6,6.2l-9.4,5.5
					c-2,1.1-5.2,1.1-7.2,0l-9.4-5.5c-2-1.1-3.6-4-3.6-6.2v-64.9c0-2.3,1.6-5.1,3.6-6.2l9.4-5.5c2-1.1,5.2-1.1,7.2,0l9.4,5.5
					c2,1.2,3.6,4,3.6,6.2v11C993.4,246,997.2,249.7,1001.7,249.7"/>
			</g>
		</g>
	</g>
	<g>
		<path class="st5" d="M336.4,936.3c-1.5-1.7-3.2-3.1-4.9-4.6l9-15.1L323,906.2l-9.1,15.2c-3.8-1.3-7.7-2.2-11.6-2.7l-1.6-17.8
			l-20.3,1.8l1.6,17.8c-3.8,1.1-7.5,2.6-11,4.6l-11.7-13.5L243.9,925l11.7,13.5c-2.5,3.2-4.4,6.6-6.1,10.2l-17.4-4l-4.6,19.9l17.3,4
			c-0.1,4,0.3,8,1,11.9l-16.3,6.9l8,18.7l16.1-6.8c1.2,1.9,2.4,3.8,3.9,5.5c1.2,1.4,2.7,2.5,4,3.8l-8.9,14.9l17.5,10.5l8.8-14.6
			c3.9,1.5,8,2.5,12.1,3l1.5,16.8l20.3-1.8l-1.5-16.6c4-1.1,8-2.7,11.7-4.8l10.9,12.5l15.4-13.4l-10.9-12.5
			c2.6-3.4,4.7-7.1,6.4-10.9l16.3,3.8l4.6-19.9l-16.5-3.8c0.1-4.1-0.4-8.3-1.3-12.4l15.7-6.7l-8-18.8l-16,6.8
			C338.6,939.3,337.6,937.7,336.4,936.3z M316.3,992.8c-12.5,10.9-31.5,9.6-42.4-2.9s-9.6-31.5,2.9-42.4s31.5-9.6,42.4,2.9
			C330.1,962.9,328.8,981.9,316.3,992.8z"/>
	</g>
	<path class="st12" d="M290.2,752.7l-30.3-2L243.1,776l13.4,27.2l30.3,2l16.9-25.2L290.2,752.7z M269.6,788.9c-6-2-9.3-8.6-7.2-14.6
		c2-6,8.6-9.3,14.6-7.2c6,2,9.3,8.6,7.2,14.6S275.7,790.9,269.6,788.9z"/>
	<g>
		<polygon class="st7" points="733.7,47.2 764.1,35.8 733.7,24.4 603.6,24.4 603.6,47.2 		"/>
		<polygon class="st4" points="733.7,47.2 764.1,35.8 733.7,24.4 603.6,24.4 603.6,47.2 		"/>
		<line class="st4" x1="764.1" y1="35.8" x2="772.8" y2="35.8"/>
		<rect x="583.4" y="24.4" class="st4" width="20.3" height="22.8"/>
		<polygon class="st8" points="733.7,24.4 733.7,47.2 764.1,35.8 		"/>
	</g>
	<g>
		<line class="st17" x1="712.3" y1="306.1" x2="742.8" y2="247.3"/>
		<polyline class="st17" points="696.3,247.3 667.7,276.7 696.3,306.1 		"/>
		<polyline class="st17" points="761.4,247.3 790,276.7 761.4,306.1 		"/>
	</g>
	<path class="st6" d="M1035.1,859.7v-12.2h-14.2c-0.3-2.1-0.7-4.1-1.3-6.1l13-5.4l-4.7-11.3l-13.1,5.4c-1.1-1.8-2.2-3.5-3.5-5.2
		l10-10l-8.7-8.7l-10,10c-1.7-1.3-3.4-2.4-5.2-3.4l5.4-13l-11.3-4.7l-5.4,13.1c-2-0.5-4-0.9-6.1-1.2v-14.1h-12.2v14.2
		c-2.1,0.3-4.1,0.7-6.1,1.3l-5.4-13l-11.3,4.7l5.4,13.1c-1.8,1.1-3.5,2.2-5.2,3.5l-10-10l-8.6,8.7l10,10c-1.3,1.7-2.4,3.4-3.5,5.2
		l-13-5.4l-4.7,11.3l13.1,5.4c-0.5,2-0.9,4-1.2,6.1h-14.1v12.2h14.2c0.3,2.1,0.7,4.1,1.3,6.1l-13,5.4l4.7,11.3l13.1-5.4
		c1.1,1.8,2.2,3.5,3.5,5.2l-10,10l8.7,8.6l10-10c1.7,1.3,3.4,2.4,5.2,3.5l-5.4,13l11.3,4.7l5.4-13.1c2,0.5,4,0.9,6.1,1.2v14.1h12.2
		v-14.2c2.1-0.3,4.1-0.7,6.1-1.3l5.4,13l11.3-4.7l-5.4-13.1c1.8-1.1,3.5-2.2,5.2-3.5l10,10l8.6-8.7l-10-10c1.3-1.7,2.4-3.4,3.4-5.2
		l13,5.4l4.7-11.3l-13.1-5.4c0.5-2,0.9-4,1.2-6.1L1035.1,859.7z M1004.7,836.3c1.8,3.1,0.7,7-2.3,8.8c-3.1,1.8-7,0.7-8.8-2.3
		c-1.8-3.1-0.7-7,2.3-8.8C999,832.2,1002.9,833.3,1004.7,836.3z M974.2,818.7c3.5,0,6.4,2.9,6.4,6.4s-2.9,6.4-6.4,6.4
		s-6.4-2.9-6.4-6.4C967.7,821.5,970.6,818.7,974.2,818.7z M952.3,834c3.1,1.8,4.1,5.7,2.3,8.8s-5.7,4.1-8.8,2.3s-4.1-5.7-2.3-8.8
		C945.4,833.3,949.3,832.2,952.3,834z M943.6,871.6c-1.8-3.1-0.7-7,2.3-8.8c3.1-1.8,7-0.7,8.8,2.4c1.8,3.1,0.7,7-2.3,8.8
		C949.3,875.7,945.4,874.7,943.6,871.6z M974.2,889.3c-3.5,0-6.4-2.9-6.4-6.4s2.9-6.4,6.4-6.4s6.4,2.9,6.4,6.4
		C980.6,886.4,977.7,889.3,974.2,889.3z M974.2,866.2c-6.8,0-12.2-5.5-12.2-12.2c0-6.8,5.5-12.2,12.2-12.2c6.8,0,12.2,5.5,12.2,12.2
		S980.9,866.2,974.2,866.2z M996,874c-3.1-1.8-4.1-5.7-2.4-8.8c1.8-3.1,5.7-4.1,8.8-2.3s4.1,5.7,2.3,8.8
		C1002.9,874.7,999,875.7,996,874z"/>
	<g id="Page-1_1_">
		<g id="LSH-00-Copy-34" transform="translate(-272.000000, -64.000000)">
			<g id="Group-4" transform="translate(272.000000, 64.000000)">
				<path id="Fill-17" class="st6" d="M393.4,773.1c-3.7,0-6.6,3-6.6,6.7v65.8c0,3.7,3,6.7,6.6,6.7c3.7,0,6.6-3,6.6-6.7v-65.8
					C400,776.1,397,773.1,393.4,773.1"/>
				<path id="Fill-19" class="st6" d="M380.1,837.9c0,3.7-3,6.7-6.6,6.7c-3.7,0-6.6-3-6.6-6.7v-11.3c0-3.7,3-6.7,6.6-6.7
					c3.7,0,6.6,3,6.6,6.7V837.9z"/>
				<path id="Fill-21" class="st6" d="M439.7,826.3c0,3.7-3,6.7-6.6,6.7c-3.7,0-6.6-3-6.6-6.7v-8.7c0-3.7,3-6.7,6.6-6.7
					c3.7,0,6.6,3,6.6,6.7V826.3z"/>
				<path id="Fill-23" class="st6" d="M419.9,837.9c0,3.7-3,6.7-6.6,6.7c-3.7,0-6.6-3-6.6-6.7v-38.8c0-3.7,3-6.7,6.6-6.7
					c3.7,0,6.6,3,6.6,6.7V837.9z"/>
				<path id="Fill-25" class="st6" d="M406.6,776.3v4.3V776.3C406.6,776.2,406.6,776.2,406.6,776.3"/>
				<path id="Fill-27" class="st6" d="M419.9,780.5v-2.6V780.5C419.9,780.6,419.9,780.5,419.9,780.5"/>
				<path id="Fill-29" class="st6" d="M414.1,760.9l-15-8.8c-3.2-1.8-8.3-1.8-11.5,0l-15,8.8c-3.2,1.8-5.7,6.4-5.7,10.1v37.3
					c0,3.7,3,6.7,6.6,6.7s6.6-3,6.6-6.7v-32.9c0-1.8,1.3-4.1,2.9-5l7.5-4.4c1.6-0.9,4.2-0.9,5.7,0l7.5,4.4c1.6,0.9,2.9,3.2,2.9,5
					v5.2c0,3.7,3,6.7,6.6,6.7c3.7,0,6.6-3,6.6-6.7V771C419.9,767.3,417.3,762.8,414.1,760.9"/>
				<path id="Fill-31" class="st6" d="M415,715l-0.2-0.1l-7.1-4.2c-7.9-4.6-20.8-4.6-28.7,0l-37.5,22c-7.9,4.6-14.3,15.9-14.3,25.2
					v7.8c0.1,3.4,3,6.2,6.6,6.2s6.5-2.8,6.6-6.2c0-0.1,0-3.5,0-3.5c0-7.4,5.2-16.4,11.5-20.1l30-17.6c6.3-3.7,16.6-3.7,22.9,0
					l3.1,1.8l0.9,0.5c0.9,0.4,1.9,0.7,2.9,0.7c3.7,0,6.6-3,6.6-6.7C418.3,718.3,417,716.1,415,715"/>
				<path id="Fill-33" class="st6" d="M459.6,757.8c0-9.2-6.4-20.5-14.3-25.2l-14.8-8.6c-0.9-0.4-1.9-0.7-2.9-0.7
					c-3.7,0-6.6,3-6.6,6.7c0,2.4,1.3,4.6,3.2,5.7L435,742c6.3,3.7,11.5,12.8,11.5,20.1v29c0,3.7,3,6.7,6.6,6.7c3.7,0,6.6-3,6.6-6.7
					v-33.3H459.6z"/>
				<path id="Fill-35" class="st6" d="M340.4,803.7c0,3.7-3,6.7-6.6,6.7c-3.7,0-6.6-3-6.6-6.7V784c0-3.7,3-6.7,6.6-6.7
					c3.7,0,6.6,3,6.6,6.7V803.7z"/>
				<path id="Fill-37" class="st6" d="M428.3,745.9l-23.4-13.7c-6.3-3.7-16.6-3.7-22.9,0l-5.4,3.1c-1.8,1.2-3.1,3.3-3.1,5.6
					c0,3.7,3,6.7,6.6,6.7c1.1,0,2.1-0.3,3-0.7l4.5-2.6c3.2-1.8,8.3-1.8,11.5,0l21.6,12.7c3.2,1.8,5.7,6.4,5.7,10.1
					c0,0,0,19.3,0,19.4V799c0,3.7,3,6.7,6.6,6.7c2.6,0,4.8-1.5,5.9-3.7c0.5-0.9,0.7-2,0.7-3v-33
					C439.7,758.7,434.6,749.6,428.3,745.9"/>
				<path id="Fill-39" class="st6" d="M364.3,743.6c-1.1,0-2.1,0.3-3.1,0.8l-2.7,1.6c-6.3,3.7-11.5,12.7-11.5,20.1v60.2
					c0,3.7,3,6.7,6.6,6.7c3.7,0,6.6-3,6.6-6.7v-59.2c0-3.7,2.6-8.2,5.7-10.1c0,0,1.8-1,2-1.2c1.8-1.2,2.9-3.3,2.9-5.6
					C370.9,746.6,368,743.6,364.3,743.6"/>
			</g>
		</g>
	</g>
	<g>
		<circle class="st12" cx="873.4" cy="601.7" r="5.8"/>
		<g>
			<polyline class="st12" points="940,655.6 940,668.2 927.4,668.2 			"/>
			<line class="st4" x1="905.8" y1="668.2" x2="830.3" y2="668.2"/>
			<polyline class="st12" points="819.5,668.2 806.9,668.2 806.9,655.6 			"/>
			<line class="st4" x1="806.9" y1="634.1" x2="806.9" y2="558.6"/>
			<polyline class="st12" points="806.9,547.8 806.9,535.2 819.5,535.2 			"/>
			<line class="st4" x1="841.1" y1="535.2" x2="916.6" y2="535.2"/>
			<polyline class="st12" points="927.4,535.2 940,535.2 940,547.8 			"/>
			<line class="st4" x1="940" y1="569.3" x2="940" y2="644.9"/>
		</g>
	</g>
	<g>
		<path class="st21" d="M453.1,608c0,9.2-7.5,16.7-16.7,16.7H264.8V478.2h188.3v118.7L453.1,608L453.1,608z"/>
		<path class="st22" d="M453.1,469.5c0-9.2-7.5-16.7-16.7-16.7s-16.7,7.5-16.7,16.7v139.8c0-9.2,7.5-16.7,16.7-16.7
			s16.7,7.5,16.7,16.7V469.5z"/>
		<g>
			<line class="st21" x1="285.8" y1="565.5" x2="337.4" y2="565.5"/>
			<line class="st21" x1="357.9" y1="565.5" x2="408.2" y2="565.5"/>
		</g>
		<g>
			<line class="st21" x1="285.8" y1="581.4" x2="337.4" y2="581.4"/>
			<line class="st21" x1="357.9" y1="581.4" x2="408.2" y2="581.4"/>
		</g>
		<g>
			<line class="st21" x1="285.8" y1="599" x2="337.4" y2="599"/>
			<line class="st21" x1="357.9" y1="599" x2="408.2" y2="599"/>
		</g>
		<rect x="285.8" y="499.3" class="st21" width="51.6" height="51.6"/>
		<rect x="357.3" y="499.3" class="st21" width="51.6" height="51.6"/>
		<g>
			<rect x="285.8" y="499.3" class="st21" width="51.6" height="51.6"/>
			<line class="st21" x1="285.8" y1="499.3" x2="337.4" y2="550.9"/>
			<line class="st21" x1="337.4" y1="499.3" x2="285.8" y2="550.9"/>
		</g>
	</g>
	<g>
		<rect x="962.5" y="696.2" class="st15" width="63.4" height="63.4"/>
		<g>
			<line class="st16" x1="962.5" y1="696.2" x2="1025.9" y2="759.6"/>
			<line class="st16" x1="962.5" y1="759.6" x2="1026.7" y2="695.4"/>
		</g>
	</g>
	<g>
		<line class="st17" x1="294.8" y1="701.6" x2="316.7" y2="659.3"/>
		<polyline class="st17" points="283.3,659.3 262.8,680.5 283.3,701.6 		"/>
		<polyline class="st17" points="330.1,659.3 350.6,680.5 330.1,701.6 		"/>
	</g>
	<g>
		<path class="st5" d="M1029.9,518.8c-0.8-1-1.8-1.7-2.7-2.5l5-8.3l-9.7-5.8l-5,8.4c-2.1-0.7-4.2-1.2-6.4-1.5l-0.9-9.8l-11.2,1
			l0.9,9.9c-2.1,0.6-4.1,1.4-6.1,2.6l-6.5-7.4l-8.5,7.4l6.5,7.4c-1.4,1.8-2.5,3.7-3.4,5.6l-9.6-2.2l-2.5,11l9.6,2.2
			c-0.1,2.2,0.1,4.4,0.6,6.6l-9,3.8l4.4,10.4l8.9-3.8c0.7,1,1.3,2.1,2.2,3c0.7,0.8,1.5,1.4,2.2,2.1l-4.9,8.2l9.7,5.8l4.8-8.1
			c2.2,0.8,4.4,1.4,6.7,1.6l0.8,9.3l11.2-1l-0.8-9.2c2.2-0.6,4.4-1.5,6.5-2.6l6,6.9l8.5-7.4l-6-6.9c1.5-1.9,2.6-3.9,3.5-6l9,2.1
			l2.5-11l-9.1-2.1c0.1-2.3-0.2-4.6-0.7-6.8l8.7-3.7l-4.4-10.4l-8.8,3.8C1031.1,520.4,1030.6,519.6,1029.9,518.8z M1018.8,550
			c-6.9,6-17.4,5.3-23.4-1.6c-6-6.9-5.3-17.4,1.6-23.4c6.9-6,17.4-5.3,23.4,1.6C1026.4,533.5,1025.7,544,1018.8,550z"/>
	</g>
	<g>
		<g>
			<line class="st4" x1="1034.7" y1="425.3" x2="983.1" y2="425.3"/>
			<line class="st4" x1="962.6" y1="425.3" x2="912.3" y2="425.3"/>
		</g>
		<g>
			<line class="st4" x1="1034.7" y1="441.3" x2="983.1" y2="441.3"/>
			<line class="st4" x1="962.6" y1="441.3" x2="912.3" y2="441.3"/>
		</g>
		<g>
			<line class="st4" x1="1034.7" y1="458.9" x2="983.1" y2="458.9"/>
			<line class="st4" x1="962.6" y1="458.9" x2="912.3" y2="458.9"/>
		</g>
		<rect x="983.1" y="359.1" class="st12" width="51.6" height="51.6"/>
		<rect x="911.6" y="359.1" class="st4" width="51.6" height="51.6"/>
		<g>
			<rect x="983.1" y="359.1" class="st4" width="51.6" height="51.6"/>
			<line class="st4" x1="1034.7" y1="359.1" x2="983.1" y2="410.7"/>
			<line class="st4" x1="983.1" y1="359.1" x2="1034.7" y2="410.7"/>
		</g>
	</g>
	<path class="st12" d="M730.2,139l-39.3-51.5l-64.2,8.3l-24.9,59.8l39.3,51.5l64.2-8.3L730.2,139z M643.2,156.6
		c-5.2-12.6,0.8-26.9,13.4-32.1c12.6-5.2,26.9,0.8,32.1,13.4c5.2,12.6-0.8,26.9-13.4,32.1C662.8,175.2,648.4,169.2,643.2,156.6z"/>
	<g>
		<g>
			<path class="st5" d="M1007.2,654.6c-0.5-1.6,0.5-3.3,2.1-3.8l0,0c1.6-0.5,3.3,0.5,3.8,2.1l0,0c0.5,1.6-0.5,3.3-2.1,3.8l0,0l0,0
				l0,0c-0.3,0.1-0.6,0.1-0.9,0.1l0,0C1008.8,656.8,1007.6,655.9,1007.2,654.6z M995.5,656.1L995.5,656.1L995.5,656.1
				c-1.6-0.6-2.4-2.4-1.8-4l0,0c0.6-1.6,2.4-2.4,3.9-1.8l0,0c1.6,0.6,2.4,2.4,1.8,3.9l0,0c-0.5,1.2-1.6,2-2.9,2l0,0
				C996.2,656.3,995.9,656.3,995.5,656.1z M1019.5,648.4c-1.4-1-1.6-2.9-0.6-4.3l0,0c1-1.4,2.9-1.6,4.3-0.6l0,0
				c1.4,1,1.6,2.9,0.6,4.3l0,0c-0.6,0.8-1.5,1.2-2.5,1.2l0,0C1020.7,649.1,1020,648.9,1019.5,648.4z M983.5,646.4
				c-0.9-1.4-0.5-3.3,0.9-4.2l0,0c1.4-0.9,3.3-0.5,4.2,0.9l0,0c0.9,1.4,0.5,3.3-0.9,4.2l0,0c-0.5,0.3-1.1,0.5-1.7,0.5l0,0
				C985,647.8,984,647.3,983.5,646.4z M1022.5,633.1c0-1.7,1.4-3.1,3.1-3.1l0,0c1.7,0,3.1,1.4,3.1,3.1l0,0c0,1.7-1.4,3.1-3.1,3.1
				l0,0C1023.9,636.2,1022.5,634.8,1022.5,633.1z M982.5,634.6c-1.7-0.1-3-1.6-2.8-3.3l0,0c0.1-1.7,1.6-3,3.3-2.8l0,0
				c1.7,0.1,3,1.6,2.8,3.3l0,0c-0.1,1.6-1.5,2.9-3.1,2.9l0,0C982.6,634.6,982.5,634.6,982.5,634.6z M1020.3,624.3L1020.3,624.3
				c-0.8-1.5-0.3-3.4,1.2-4.2l0,0c1.5-0.8,3.4-0.3,4.2,1.2l0,0c0.8,1.5,0.3,3.4-1.2,4.2l0,0c-0.5,0.3-1,0.4-1.5,0.4l0,0
				C1021.9,625.9,1020.8,625.3,1020.3,624.3z M985.9,621.4c-1.3-1.1-1.4-3.1-0.3-4.3l0,0c1.1-1.3,3-1.4,4.3-0.3l0,0
				c1.3,1.1,1.4,3.1,0.3,4.3l0,0c-0.6,0.7-1.5,1.1-2.3,1.1l0,0C987.2,622.1,986.4,621.9,985.9,621.4z M1011.8,616.4
				c-1.5-0.7-2.2-2.5-1.5-4.1l0,0c0.7-1.5,2.5-2.2,4.1-1.5l0,0c1.5,0.7,2.2,2.5,1.5,4.1l0,0c-0.5,1.1-1.6,1.8-2.8,1.8l0,0
				C1012.6,616.6,1012.2,616.5,1011.8,616.4z M996.5,612.8c-0.4-1.7,0.7-3.3,2.4-3.7l0,0c1.7-0.4,3.3,0.7,3.6,2.4l0,0
				c0.4,1.7-0.7,3.3-2.4,3.6l0,0c-0.2,0-0.4,0.1-0.7,0.1l0,0C998.1,615.2,996.9,614.2,996.5,612.8z"/>
		</g>
	</g>
	<path class="st2" d="M264.6,788.5l-29.3,7.9l-7.9,29.3l21.5,21.5l29.3-7.9l7.9-29.3L264.6,788.5z M256.8,829.3
		c-6.4,0-11.5-5.2-11.5-11.5c0-6.4,5.2-11.5,11.5-11.5c6.4,0,11.5,5.2,11.5,11.5C268.3,824.2,263.1,829.3,256.8,829.3z"/>
	<g>
		<line class="st4" x1="1026.6" y1="1003" x2="974.9" y2="1003"/>
		<line class="st4" x1="954.5" y1="1003" x2="904.2" y2="1003"/>
	</g>
	<g>
		<line class="st4" x1="1026.6" y1="1019" x2="974.9" y2="1019"/>
		<line class="st4" x1="954.5" y1="1019" x2="904.2" y2="1019"/>
	</g>
	<g>
		<line class="st4" x1="1026.6" y1="1036.6" x2="974.9" y2="1036.6"/>
		<line class="st4" x1="954.5" y1="1036.6" x2="904.2" y2="1036.6"/>
	</g>
	<rect x="903.5" y="936.8" class="st4" width="51.6" height="51.6"/>
</g>
</svg>
